<svg width="1400" height="1563" viewBox="0 0 1400 1563" fill="none" xmlns="http://www.w3.org/2000/svg">
<path d="M1786.27 404.313C1789.88 402.473 1793.09 401.532 1795.66 401.983H1795.66C1797.12 402.239 1798.2 403.5 1799.04 405.134C1799.89 406.817 1800.62 409.174 1801.24 412.136C1802.49 418.071 1803.34 426.662 1803.74 437.706C1804.54 459.808 1803.55 491.898 1800.28 532.594C1793.75 613.997 1778.11 729.915 1749.39 869.389C1721.11 1006.75 1699.88 1109.84 1675.59 1189.55C1651.29 1269.27 1623.91 1325.7 1583.24 1369.71C1441.65 1522.92 1235.49 1542.61 1030.7 1557.95L1010.89 1559.43C935.231 1565.03 836.032 1566.44 754.009 1558.16C713.005 1554.03 676.236 1547.47 648.834 1537.78C635.134 1532.94 623.726 1527.29 615.294 1520.74C606.858 1514.19 601.341 1506.68 599.562 1498.11C597.432 1487.86 600.032 1478.08 606.194 1468.44C612.342 1458.82 622.065 1449.29 634.284 1439.45C658.693 1419.8 693.436 1398.65 730.257 1373.03C804.024 1321.69 886.631 1252.09 914.562 1139.04C950.897 992.074 1028.69 867.848 1053.65 820.53C1086.14 758.924 1112.13 711.116 1152.3 676.229C1192.51 641.307 1246.81 619.407 1335.78 609.307C1339.94 608.836 1346.52 608.74 1355 608.73C1363.51 608.72 1373.96 608.796 1385.91 608.679C1409.81 608.446 1439.65 607.441 1471.66 603.429C1535.7 595.402 1608.25 575.355 1659.16 525.533C1672.6 512.375 1686.67 497.898 1700.51 483.626C1714.34 469.357 1727.94 455.29 1740.42 442.967C1752.9 430.648 1764.28 420.044 1773.68 412.711C1778.38 409.046 1782.62 406.174 1786.27 404.313ZM1795.32 403.953C1793.41 403.62 1790.7 404.297 1787.18 406.095C1783.69 407.872 1779.57 410.658 1774.91 414.288C1765.61 421.545 1754.29 432.081 1741.83 444.389C1729.37 456.694 1715.78 470.744 1701.94 485.018C1688.11 499.289 1674.02 513.783 1660.55 526.962C1609.18 577.242 1536.1 597.367 1471.9 605.414C1439.79 609.439 1409.86 610.446 1385.93 610.679C1373.97 610.796 1363.49 610.72 1355.01 610.73C1346.5 610.741 1340.03 610.839 1336.01 611.295C1247.27 621.368 1193.4 643.176 1153.61 677.739C1113.78 712.337 1087.94 759.79 1055.42 821.463C1030.38 868.936 952.763 992.859 916.504 1139.52C888.387 1253.32 805.244 1323.28 731.399 1374.67C694.415 1400.41 659.885 1421.41 635.539 1441.01C623.38 1450.8 613.854 1460.17 607.88 1469.51C601.92 1478.84 599.524 1488.09 601.521 1497.71C603.173 1505.67 608.324 1512.8 616.521 1519.16C624.721 1525.53 635.911 1531.09 649.501 1535.9C676.681 1545.5 713.265 1552.04 754.209 1556.17C836.082 1564.43 935.159 1563.03 1010.74 1557.43L1030.57 1555.96C1235.47 1540.6 1440.79 1520.91 1581.77 1368.35C1622.15 1324.66 1649.42 1268.55 1673.68 1188.97C1697.93 1109.37 1719.14 1006.39 1747.43 868.985C1776.14 729.58 1791.77 613.744 1798.29 532.435C1801.55 491.777 1802.53 459.772 1801.74 437.778C1801.34 426.774 1800.5 418.317 1799.29 412.547C1798.68 409.656 1797.99 407.496 1797.25 406.041C1796.53 404.629 1795.88 404.103 1795.41 403.973L1795.32 403.953ZM1706.66 528.051C1709.62 526.611 1712.3 525.885 1714.47 526.32H1714.47C1715.79 526.58 1716.8 527.65 1717.58 529.045C1718.39 530.47 1719.08 532.439 1719.67 534.888C1720.86 539.797 1721.71 546.852 1722.19 555.882C1723.14 573.955 1722.6 600.111 1720.19 633.204C1715.36 699.399 1703.02 793.446 1680.04 906.303C1657.43 1017.64 1640.18 1101.55 1620.27 1166.51C1600.36 1231.49 1577.76 1277.6 1544.41 1313.28C1425.89 1440.11 1252.21 1452.66 1081.56 1464.16L1081.56 1464.17C1020.53 1468.35 940.68 1469.1 874.606 1462.07C841.577 1458.56 811.934 1453.09 789.794 1445.11C778.724 1441.13 769.482 1436.49 762.623 1431.12C755.761 1425.75 751.228 1419.6 749.707 1412.58C747.888 1404.17 749.884 1396.16 754.743 1388.26C759.587 1380.39 767.302 1372.6 777.006 1364.57C796.387 1348.54 824.069 1331.29 853.414 1310.48C912.224 1268.78 978.19 1212.46 1000.62 1121.4C1029.83 1002.72 1092.56 902.335 1113.22 863.673C1139.58 813.96 1160.84 775.477 1193.47 747.292C1226.15 719.073 1270.13 701.249 1341.79 692.555L1342.47 692.48C1345.94 692.12 1351.1 692.011 1357.58 691.963C1364.52 691.911 1373.01 691.929 1382.7 691.794C1402.07 691.523 1426.2 690.638 1452.05 687.359C1503.78 680.798 1562.27 664.67 1603.42 624.858L1603.43 624.857C1614.32 614.341 1625.73 602.761 1636.95 591.343C1648.17 579.928 1659.2 568.674 1669.33 558.827C1679.46 548.985 1688.71 540.52 1696.37 534.696C1700.2 531.785 1703.66 529.508 1706.66 528.051ZM1714.08 528.281C1712.57 527.979 1710.4 528.456 1707.54 529.849C1704.71 531.225 1701.36 533.413 1697.58 536.288C1690.02 542.035 1680.84 550.428 1670.72 560.26C1660.61 570.088 1649.6 581.324 1638.38 592.744C1627.16 604.16 1615.73 615.758 1604.81 626.295L1604.82 626.296C1563.2 666.559 1504.18 682.763 1452.3 689.343C1426.34 692.634 1402.13 693.522 1382.73 693.794C1373.03 693.929 1364.51 693.911 1357.6 693.963C1351.09 694.011 1346.03 694.121 1342.68 694.469L1342.04 694.541C1270.6 703.207 1227.05 720.938 1194.78 748.805C1162.48 776.706 1141.38 814.84 1114.99 864.612L1114.98 864.615C1094.25 903.417 1031.69 1003.51 1002.56 1121.88C979.95 1213.68 913.457 1270.35 854.571 1312.11C825.068 1333.03 797.592 1350.13 778.28 1366.11C768.638 1374.09 761.12 1381.72 756.446 1389.31C751.787 1396.88 749.977 1404.37 751.661 1412.15C753.052 1418.58 757.229 1424.36 763.855 1429.55C770.485 1434.74 779.512 1439.28 790.472 1443.23C812.39 1451.13 841.849 1456.57 874.817 1460.08C940.74 1467.09 1020.47 1466.35 1081.42 1462.17H1081.42C1252.25 1450.66 1425.06 1438.08 1542.95 1311.92C1576 1276.55 1598.49 1230.76 1618.36 1165.93C1638.23 1101.08 1655.46 1017.27 1678.08 905.905V905.904C1701.05 793.116 1713.37 699.155 1718.19 633.058C1720.6 600.006 1721.13 573.943 1720.19 555.987C1719.71 547.002 1718.87 540.09 1717.73 535.359C1717.15 532.989 1716.51 531.222 1715.84 530.027C1715.15 528.803 1714.53 528.371 1714.08 528.282L1714.08 528.281ZM-204.667 269.789C-139.865 245.124 -66.873 248.47 -7.16214 259.79C52.5319 271.107 99.1322 290.429 111.206 297.89C194.947 349.649 238.382 390.066 275.723 422.534C313.023 454.967 344.22 479.449 403.572 499.523C442.892 512.821 480.125 503.293 515.649 482.052C551.2 460.794 584.929 427.869 617.159 394.558C649.345 361.293 680.061 327.614 709.476 305.057C738.87 282.517 767.31 270.815 794.85 282.127C815.926 290.784 834.365 312.094 849.933 342.821C865.514 373.575 878.293 413.91 887.963 460.861C907.304 554.769 914.243 675.3 906.203 798.957C898.163 922.614 875.142 1049.46 834.524 1155.97C793.916 1262.47 735.664 1348.8 657.065 1391.2C554.639 1446.46 437.088 1453.1 327.056 1435.62C217.021 1418.14 114.42 1376.52 41.8056 1335.15C-22.696 1298.42 -122.549 1224.7 -211.472 1124.54C-300.392 1024.38 -378.452 897.697 -399.229 755.018C-412.142 666.283 -403.556 560.271 -371.752 468.817C-339.954 377.382 -284.877 300.315 -204.667 269.789ZM-7.53421 261.756C-67.0744 250.468 -139.645 247.18 -203.956 271.658C-283.383 301.886 -338.161 378.312 -369.863 469.473C-401.559 560.615 -410.118 666.303 -397.249 754.73C-376.549 896.882 -298.751 1023.22 -209.976 1123.21C-121.203 1223.2 -21.5239 1296.78 42.7959 1333.42C115.234 1374.68 217.607 1416.21 327.369 1433.64C437.133 1451.08 554.2 1444.43 656.115 1389.44C734.099 1347.37 792.119 1261.57 832.655 1155.26C873.182 1048.98 896.176 922.346 904.207 798.827C912.238 675.308 905.302 554.961 886.004 461.264C876.354 414.413 863.622 374.265 848.149 343.724C832.663 313.157 814.505 292.363 794.089 283.976C767.604 273.098 739.974 284.19 710.692 306.644C681.431 329.083 650.864 362.6 618.597 395.949C586.374 429.252 552.481 462.359 516.677 483.768C480.847 505.193 442.993 514.966 402.932 501.418C343.226 481.224 311.8 456.553 274.41 424.043C237.061 391.568 193.739 351.253 110.154 299.592C98.3626 292.304 52.0226 273.047 -7.53421 261.756ZM1626.99 651.78C1629.3 650.737 1631.44 650.225 1633.22 650.635C1634.38 650.9 1635.3 651.772 1636.04 652.925C1636.79 654.09 1637.44 655.671 1638 657.61C1639.13 661.494 1639.98 667.018 1640.53 674.035C1641.63 688.083 1641.54 708.303 1639.98 733.791C1636.86 784.776 1627.85 856.946 1610.64 943.193C1593.7 1028.5 1580.42 1093.24 1564.9 1143.45C1549.37 1193.68 1531.57 1229.47 1505.53 1256.84C1414.67 1352.34 1282.3 1361.53 1152.17 1368.87C1105.77 1371.62 1045.27 1371.74 995.147 1365.97C970.092 1363.09 947.574 1358.72 930.693 1352.45C922.253 1349.31 915.176 1345.69 909.89 1341.49C904.6 1337.3 901.051 1332.5 899.785 1327.01L899.784 1327.01C896.769 1313.9 905.355 1302.04 919.671 1289.67C934.031 1277.25 954.657 1263.91 976.529 1247.91C1020.39 1215.84 1069.71 1172.81 1086.61 1103.73L1087.13 1101.61C1109.44 1012.15 1156.63 936.63 1172.75 906.794C1193.12 869.051 1209.64 839.875 1234.71 818.36C1259.81 796.815 1293.39 783.025 1347.75 775.77L1348.29 775.704C1351.06 775.383 1355.1 775.251 1360.11 775.165C1365.49 775.072 1371.99 775.032 1379.43 774.877C1394.28 774.567 1412.69 773.801 1432.39 771.255C1471.81 766.158 1516.25 753.946 1547.65 724.147L1547.66 724.144C1556.01 716.262 1564.75 707.579 1573.35 699.019C1581.95 690.464 1590.41 682.031 1598.18 674.668C1605.95 667.31 1613.07 660.991 1618.99 656.676C1621.95 654.519 1624.64 652.838 1626.99 651.78ZM1632.77 652.585C1631.65 652.325 1630.01 652.611 1627.81 653.603C1625.64 654.581 1623.08 656.173 1620.17 658.292C1614.36 662.528 1607.32 668.773 1599.56 676.12C1591.8 683.462 1583.37 691.875 1574.76 700.436C1566.17 708.993 1557.41 717.696 1549.03 725.599C1517.16 755.836 1472.21 768.123 1432.64 773.238C1412.84 775.798 1394.36 776.567 1379.47 776.877C1372.05 777.031 1365.48 777.072 1360.14 777.164C1354.77 777.256 1350.66 777.4 1348.01 777.753C1293.88 784.978 1260.72 798.673 1236.01 819.878C1211.27 841.113 1194.91 869.951 1174.5 907.744C1158.19 937.945 1110.56 1014.13 1088.55 1104.2C1071.47 1174.01 1021.64 1217.4 977.71 1249.53C955.688 1265.63 935.261 1278.83 920.979 1291.18C906.652 1303.57 899.004 1314.69 901.733 1326.56L901.846 1327.02C903.069 1331.75 906.231 1336.04 911.133 1339.93C916.195 1343.94 923.06 1347.48 931.39 1350.58C948.049 1356.76 970.384 1361.11 995.377 1363.98C1045.35 1369.74 1105.73 1369.62 1152.05 1366.87H1152.06C1282.35 1359.53 1413.85 1350.3 1504.08 1255.46C1529.82 1228.41 1547.5 1192.95 1562.99 1142.86C1578.48 1092.77 1591.74 1028.14 1608.68 942.802L1609.48 938.773C1626.15 854.379 1634.91 783.753 1637.98 733.669C1639.54 708.225 1639.62 688.108 1638.54 674.191C1637.99 667.226 1637.15 661.859 1636.08 658.169C1635.54 656.32 1634.96 654.943 1634.36 654.006C1633.75 653.057 1633.2 652.683 1632.77 652.586L1632.77 652.585ZM-103.962 405.569C-52.0924 384.963 6.53991 386.763 54.5742 395.05C102.598 403.335 140.192 418.135 150.057 423.693C218.639 462.342 253.834 494.025 283.916 519.876C313.955 545.689 338.854 565.651 386.934 581.062H386.936C418.698 591.331 448.75 583.599 477.464 566.557C506.203 549.501 533.497 523.178 559.67 496.44C585.8 469.746 610.836 442.609 634.95 424.13C659.046 405.665 682.539 395.591 705.523 403.57C724.613 410.199 742.007 427.188 757.358 451.9C772.721 476.631 786.11 509.214 797.14 547.232C819.2 623.272 831.862 721.206 831.92 821.943C831.977 922.68 819.43 1026.28 791.027 1113.65C762.632 1200.99 718.339 1272.26 654.795 1308.09L654.791 1308.09C572.189 1354.26 474.361 1361.29 380.844 1348.69C287.32 1336.08 198.011 1303.83 132.353 1271.32C73.5338 1242.21 -14.1528 1183.11 -91.918 1102.07C-169.68 1021.04 -237.599 917.981 -256.729 800.94C-268.485 729.005 -262.42 642.987 -237.39 568.563C-212.366 494.159 -168.317 431.158 -103.962 405.569ZM54.2343 397.02C6.74388 388.827 -50.9327 387.043 -102.019 406.954L-103.224 407.428C-166.805 432.708 -210.561 495.071 -235.493 569.201C-260.418 643.312 -266.46 728.999 -254.755 800.617C-235.715 917.111 -168.081 1019.81 -90.4746 1100.69C-12.8714 1181.56 74.6267 1240.52 133.24 1269.53L136.328 1271.05C201.532 1302.97 289.302 1334.33 381.11 1346.7C473.654 1359.17 570.205 1352.34 651.889 1307.42L653.815 1306.35C716.725 1270.87 760.798 1200.16 789.125 1113.03C817.445 1025.92 829.977 922.536 829.92 821.944C829.863 721.353 817.216 623.611 795.219 547.789C784.22 509.876 770.893 477.48 755.659 452.956C740.414 428.414 723.33 411.871 704.867 405.46C682.896 397.833 660.153 407.336 636.167 425.718C612.2 444.084 587.309 471.063 561.1 497.839C534.933 524.57 507.475 551.071 478.484 568.277C449.469 585.498 418.813 593.469 386.323 582.967L384.068 582.235C337.078 566.803 312.254 546.865 282.612 521.392C252.543 495.553 217.475 463.981 149.075 425.435C139.468 420.022 102.109 405.28 54.2343 397.02ZM1547.24 775.481C1548.91 774.829 1550.51 774.535 1551.88 774.912H1551.88C1552.86 775.179 1553.69 775.848 1554.39 776.748C1555.08 777.65 1555.7 778.842 1556.23 780.275C1557.31 783.142 1558.17 787.14 1558.79 792.149C1560.04 802.181 1560.4 816.471 1559.69 834.352C1558.27 870.128 1552.58 920.41 1541.13 980.036C1529.87 1039.33 1520.57 1084.89 1509.42 1120.36C1498.45 1155.29 1485.67 1180.51 1467.39 1199.47L1466.52 1200.37C1403.37 1264.57 1312.23 1270.06 1222.67 1273.54H1222.67C1190.9 1274.75 1149.75 1274.23 1115.57 1269.74C1098.49 1267.49 1083.1 1264.24 1071.48 1259.7C1059.94 1255.18 1051.79 1249.25 1049.78 1241.41L1049.78 1241.41C1047.37 1232.03 1052.9 1223.51 1062.21 1214.73C1071.55 1205.93 1085.12 1196.49 1099.52 1185.31C1128.42 1162.86 1161.12 1133.11 1172.51 1086.01C1187.46 1023.91 1220.26 971.32 1232.16 949.853C1246.47 924.038 1258.25 904.128 1275.78 889.275C1293.33 874.397 1316.55 864.662 1353.59 858.941C1357.72 858.29 1365.78 858.22 1376.04 857.855C1386.36 857.488 1399.04 856.823 1412.57 854.998C1439.67 851.343 1470.05 843.053 1491.78 823.327L1491.78 823.325C1497.59 818.071 1503.66 812.29 1509.64 806.6C1515.62 800.915 1521.5 795.321 1526.93 790.456C1532.34 785.596 1537.33 781.435 1541.52 778.631C1543.61 777.229 1545.53 776.142 1547.24 775.481ZM1551.35 776.84C1550.6 776.633 1549.49 776.75 1547.96 777.345C1546.45 777.932 1544.66 778.93 1542.63 780.292C1538.57 783.014 1533.67 787.098 1528.26 791.945C1522.86 796.787 1517 802.36 1511.02 808.05C1505.05 813.734 1498.96 819.532 1493.12 824.806L1493.12 824.807C1470.94 844.945 1440.07 853.308 1412.84 856.98C1399.21 858.818 1386.45 859.485 1376.11 859.853C1365.7 860.223 1357.87 860.291 1353.9 860.918L1353.89 860.919C1317.07 866.607 1294.24 876.243 1277.07 890.801C1259.86 905.384 1248.23 924.974 1233.91 950.823C1221.95 972.392 1189.32 1024.7 1174.45 1086.48V1086.48C1162.89 1134.28 1129.72 1164.39 1100.75 1186.89C1086.21 1198.18 1072.83 1207.47 1063.58 1216.19C1054.31 1224.93 1049.61 1232.71 1051.71 1240.92C1053.46 1247.73 1060.74 1253.34 1072.21 1257.83C1083.61 1262.29 1098.82 1265.51 1115.83 1267.75C1149.86 1272.23 1190.89 1272.75 1222.59 1271.55L1231 1271.21C1317.91 1267.65 1404.54 1260.53 1465.09 1198.96C1483.53 1180.23 1496.42 1155.09 1507.52 1119.76C1518.62 1084.42 1527.9 1038.97 1539.16 979.66L1539.17 979.658C1550.6 920.107 1556.28 869.927 1557.69 834.273C1558.4 816.441 1558.04 802.274 1556.81 792.397C1556.19 787.452 1555.36 783.632 1554.36 780.979C1553.86 779.653 1553.34 778.66 1552.8 777.971C1552.27 777.282 1551.78 776.957 1551.35 776.842L1551.35 776.84ZM556.479 544.371C575.226 530.038 593.664 521.72 611.897 526.57C629.135 531.165 645.599 543.835 660.833 562.552C676.075 581.278 690.15 606.137 702.591 635.257C727.474 693.499 745.881 768.922 753.999 846.798C762.117 924.672 759.954 1005.06 743.651 1073.24C727.354 1141.39 696.883 1197.49 648.247 1226.53C585.64 1263.91 507.508 1271.35 430.454 1263.57C353.387 1255.78 277.282 1232.74 218.624 1209.04C165.5 1187.59 90.0254 1143.12 23.4492 1081.21C-43.1223 1019.31 -100.888 939.871 -118.419 848.441L-118.904 845.848C-128.879 791.249 -125.172 726.385 -107.214 669.893C-88.977 612.525 -55.977 563.603 -7.46878 542.989C31.4442 526.446 75.6855 526.683 112.033 531.928C148.38 537.174 176.975 547.452 184.68 551.133H184.681C237.927 576.587 264.905 599.443 287.796 618.643C310.641 637.805 329.343 653.263 366.129 664.157H366.13C390.344 671.348 413.259 665.332 435.214 652.412C457.191 639.478 478.104 619.683 498.249 599.478C518.353 579.315 537.714 558.716 556.479 544.371ZM611.382 528.502C594.098 523.905 576.336 531.708 557.693 545.96C539.068 560.199 519.846 580.649 499.665 600.89C479.525 621.09 458.452 641.057 436.229 654.135C413.983 667.228 390.484 673.475 365.561 666.074C328.364 655.058 309.401 639.376 286.511 620.177C264.023 601.314 237.676 578.994 186.284 554.124L183.817 552.937C176.321 549.356 147.926 539.129 111.748 533.908C76.1347 528.768 33.1147 528.498 -4.88089 544.076L-6.68655 544.83C-54.4356 565.122 -87.158 613.406 -105.308 670.5C-123.167 726.681 -126.853 791.213 -116.938 845.487L-116.455 848.064L-116.039 850.191C-98.1359 940.154 -41.0727 1018.48 24.8115 1079.75C91.2097 1141.49 166.476 1185.82 219.373 1207.19C277.912 1230.84 353.828 1253.81 430.655 1261.58C507.496 1269.34 585.133 1261.89 647.222 1224.82C695.191 1196.18 725.466 1140.69 741.707 1072.77C757.943 1004.88 760.112 924.726 752.01 847.006C743.908 769.286 725.541 694.065 700.752 636.043C688.357 607.031 674.37 582.351 659.282 563.814C644.187 545.267 628.053 532.946 611.382 528.503V528.502ZM472.353 669.773C485.724 659.651 498.998 653.304 512.256 655.431L512.985 655.552C543.888 660.841 575.195 688.782 602.719 728.779C630.498 769.148 654.578 822.022 670.639 877.035C686.698 932.045 694.758 989.262 690.438 1038.32C686.121 1087.36 669.412 1128.43 635.733 1150.84C593.036 1179.25 534.571 1187.13 474.003 1184.22C413.408 1181.31 350.555 1167.59 298.948 1152.65C251.463 1138.9 188.23 1109.11 132.863 1066.33C77.5056 1023.56 29.8973 967.711 13.8652 901.824L13.4365 900.023C4.58118 862.107 5.73062 816.883 16.9873 777.151C28.4167 736.809 50.3257 701.939 82.9853 686.259C108.968 673.788 138.638 672.935 163.196 675.371C175.486 676.59 186.521 678.635 195.208 680.475C199.55 681.395 203.31 682.264 206.338 682.953C209.386 683.646 211.653 684.145 213.062 684.343L213.239 684.368L213.396 684.453C247.971 703.052 266.684 717.101 283.104 728.037C299.488 738.948 313.63 746.794 339.193 753.119L339.975 753.305C356.366 757.101 371.959 752.697 386.998 743.903C402.293 734.96 416.919 721.532 431.101 707.756C445.244 694.016 458.967 679.906 472.353 669.773ZM511.939 657.406C499.528 655.415 486.831 661.321 473.56 671.368C460.303 681.404 446.71 695.38 432.494 709.19C418.316 722.964 403.535 736.55 388.007 745.63C372.461 754.72 356.069 759.349 338.714 755.06H338.713C312.869 748.665 298.515 740.703 281.996 729.701C265.537 718.74 246.969 704.796 212.6 686.295C211.084 686.068 208.79 685.561 205.895 684.903C202.858 684.213 199.117 683.347 194.793 682.431C186.147 680.6 175.19 678.57 162.999 677.361C138.596 674.941 109.354 675.82 83.8506 688.061C51.9202 703.391 30.2626 737.63 18.9111 777.697C7.56578 817.743 6.57526 863.421 15.8086 901.35C31.6904 966.621 78.911 1022.11 134.086 1064.75C189.252 1107.37 252.258 1137.05 299.505 1150.73C351.027 1165.64 413.716 1179.32 474.099 1182.22C534.507 1185.12 592.455 1177.23 634.626 1149.17C667.578 1127.25 684.153 1086.9 688.446 1038.15C692.737 989.407 684.732 932.447 668.719 877.595C652.707 822.748 628.709 770.076 601.071 729.913C573.395 689.694 542.224 662.241 511.94 657.406H511.939ZM1467.31 898.766C1468.3 898.519 1469.28 898.449 1470.16 898.704L1470.33 898.759L1470.34 898.76C1471.9 899.304 1473.17 900.663 1474.19 902.51C1475.22 904.371 1476.08 906.854 1476.78 909.871C1478.18 915.911 1478.97 924.278 1479.11 934.551C1479.37 954.467 1477.15 981.706 1471.91 1013.41L1471.4 1016.49C1465.74 1049.76 1460.43 1076.16 1453.7 1096.89C1446.96 1117.64 1438.76 1132.8 1427.28 1143.54L1427.28 1143.54C1393.07 1175.48 1345.06 1178.28 1297.55 1177.79L1292.96 1177.74C1275.83 1177.49 1254.03 1176.34 1235.8 1173.1C1226.69 1171.48 1218.42 1169.34 1212.07 1166.5C1205.76 1163.68 1201.09 1160.07 1199.59 1155.39L1199.59 1155.39C1197.8 1149.78 1200.19 1144.61 1204.52 1139.4C1208.85 1134.19 1215.35 1128.65 1222.3 1122.28C1236.26 1109.46 1252.35 1092.99 1258.21 1067.84C1266.05 1034.05 1283.83 1005.34 1291.41 992.474C1299.61 978.519 1306.66 967.761 1316.65 959.527C1326.65 951.277 1339.51 945.624 1359.23 941.681L1359.23 941.68C1361.99 941.129 1366.71 940.861 1372.47 940.461C1378.27 940.057 1385.23 939.514 1392.62 938.424C1407.41 936.239 1423.75 931.873 1435.75 922.149L1436.97 921.153C1443.1 916.114 1449.74 910.271 1455.46 905.854C1458.53 903.489 1461.39 901.48 1463.86 900.177C1465.09 899.526 1466.25 899.033 1467.31 898.766ZM1469.68 900.649C1469.27 900.506 1468.66 900.491 1467.8 900.706C1466.95 900.918 1465.94 901.334 1464.79 901.945C1462.48 903.166 1459.72 905.091 1456.68 907.437C1450.58 912.149 1443.6 918.35 1437.01 923.702L1437.01 923.703C1424.58 933.771 1407.81 938.202 1392.91 940.402C1385.44 941.504 1378.42 942.051 1372.6 942.456C1366.74 942.864 1362.22 943.124 1359.62 943.642C1340.1 947.545 1327.59 953.098 1317.92 961.07C1308.23 969.059 1301.33 979.538 1293.13 993.488V993.489C1285.53 1006.4 1267.91 1034.85 1260.16 1068.3V1068.3C1254.15 1094.07 1237.66 1110.89 1223.65 1123.75C1216.61 1130.22 1210.27 1135.61 1206.06 1140.68C1201.86 1145.73 1200.03 1150.18 1201.49 1154.78C1202.72 1158.61 1206.69 1161.91 1212.88 1164.67C1219.02 1167.41 1227.11 1169.53 1236.15 1171.13C1254.22 1174.34 1275.9 1175.49 1292.99 1175.74L1297.59 1175.79C1345.13 1176.28 1392.35 1173.42 1425.91 1142.08C1437.05 1131.67 1445.11 1116.86 1451.79 1096.28C1458.48 1075.69 1463.77 1049.42 1469.43 1016.16C1475.02 983.217 1477.38 954.982 1477.11 934.578C1476.97 924.37 1476.18 916.163 1474.83 910.322C1474.15 907.399 1473.35 905.115 1472.44 903.479C1471.53 901.83 1470.58 900.963 1469.68 900.649ZM404.446 785.22C431.338 775.801 462.619 785.55 493.092 806.106C523.599 826.686 553.508 858.232 577.787 892.853C602.065 927.473 620.765 965.241 628.797 998.306C636.811 1031.3 634.28 1059.99 615.493 1075.95C592.684 1095.33 553.836 1103.71 509.771 1105.73C465.648 1107.75 416.055 1103.4 371.534 1097.1C329.662 1091.18 278.824 1076.12 234.748 1052.48C191.04 1029.03 153.826 997.069 138.745 957.065L138.393 956.118C130.528 934.637 128.964 908.634 133.515 885.324C138.061 862.035 148.751 841.25 165.582 830.421C178.583 822.058 193.811 819.785 206.646 819.234C213.067 818.959 218.93 819.114 223.616 819.166C225.968 819.192 228.011 819.191 229.697 819.101C231.405 819.011 232.652 818.831 233.457 818.542L233.821 818.412L234.179 818.559C270.601 833.667 275.707 839.414 304.437 842.923C322.859 845.174 340.393 833.58 357.174 819.818C361.352 816.391 365.464 812.848 369.52 809.372C373.571 805.899 377.567 802.492 381.497 799.353C389.341 793.09 397.005 787.826 404.446 785.22ZM491.974 807.764C461.688 787.334 431.103 778.003 405.107 787.108C398.004 789.596 390.56 794.676 382.745 800.917C378.846 804.031 374.874 807.416 370.821 810.89C366.772 814.361 362.642 817.921 358.442 821.365C341.974 834.871 324.127 846.892 305.102 845.008L304.194 844.908C275.195 841.367 269.596 835.44 233.749 820.548C232.697 820.858 231.345 821.016 229.804 821.098C228.047 821.192 225.946 821.192 223.594 821.166C218.872 821.114 213.084 820.96 206.732 821.232C194.024 821.777 179.221 824.026 166.664 832.103C150.471 842.522 139.969 862.7 135.478 885.708C130.99 908.694 132.543 934.323 140.271 955.429L140.617 956.36C155.449 995.703 192.163 1027.37 235.693 1050.71C279.543 1074.23 330.152 1089.23 371.814 1095.12C416.276 1101.41 465.732 1105.74 509.68 1103.73C553.687 1101.71 591.934 1093.34 614.198 1074.42C632.067 1059.24 634.828 1031.61 626.854 998.779C618.897 966.025 600.331 928.483 576.149 894.001C551.969 859.52 522.226 828.172 491.974 807.764ZM1377 1018.62C1381.65 1018.02 1386.1 1018.46 1389.65 1020.26H1389.65C1394.37 1022.65 1397.66 1027.5 1399.72 1033.34C1401.78 1039.2 1402.65 1046.2 1402.44 1053.09C1402.24 1059.99 1400.95 1066.86 1398.66 1072.47C1396.45 1077.88 1393.24 1082.27 1388.99 1084.26L1388.58 1084.45C1384.83 1086.04 1380.01 1085.91 1375.04 1084.57C1370.04 1083.23 1364.78 1080.64 1360.05 1077.14C1350.65 1070.18 1343.14 1059.41 1344.6 1047.45L1344.66 1046.96C1346.13 1036.66 1353.9 1028.33 1362.86 1023.4C1367.43 1020.88 1372.35 1019.22 1377 1018.62ZM1388.75 1022.05C1385.66 1020.49 1381.65 1020.03 1377.26 1020.6C1372.88 1021.17 1368.19 1022.74 1363.83 1025.15C1355.19 1029.9 1347.99 1037.78 1346.64 1047.24L1346.58 1047.69C1345.25 1058.63 1352.12 1068.78 1361.24 1075.54C1365.79 1078.9 1370.83 1081.37 1375.55 1082.64C1380.3 1083.92 1384.62 1083.95 1387.8 1082.6L1388.15 1082.45C1391.73 1080.76 1394.68 1076.92 1396.81 1071.71C1399 1066.37 1400.24 1059.74 1400.44 1053.03C1400.64 1046.32 1399.79 1039.59 1397.83 1034.01C1395.86 1028.41 1392.83 1024.11 1388.75 1022.05L1388.75 1022.05ZM289.648 909.428C314.022 899.221 345.597 897.121 378.978 900.236C412.377 903.353 447.68 911.699 479.573 922.474C511.461 933.248 539.988 946.466 559.821 959.352C569.731 965.791 577.523 972.18 582.473 978.177C587.391 984.138 589.688 989.949 588.043 995.112C587.215 997.709 585.37 1000.18 582.737 1002.51C580.099 1004.86 576.619 1007.11 572.431 1009.27C564.054 1013.58 552.73 1017.57 539.344 1021.09C512.563 1028.15 477.376 1033.41 440.64 1035.73C403.903 1038.06 365.572 1037.46 332.509 1032.77C299.497 1028.09 271.541 1019.32 255.738 1005.15C240.266 991.276 237.041 972.167 243.564 954.133C250.076 936.132 266.279 919.213 289.648 909.428ZM378.792 902.227C345.559 899.126 314.361 901.247 290.421 911.273C267.484 920.877 251.738 937.418 245.445 954.812C239.165 972.173 242.279 990.394 257.073 1003.66C272.406 1017.4 299.844 1026.12 332.789 1030.79C365.682 1035.45 403.87 1036.06 440.513 1033.74C477.156 1031.42 512.21 1026.17 538.834 1019.16C552.15 1015.65 563.32 1011.71 571.515 1007.49C575.612 1005.38 578.937 1003.21 581.409 1001.02C583.887 998.82 585.458 996.639 586.138 994.505C587.463 990.346 585.725 985.262 580.93 979.451C576.165 973.677 568.564 967.418 558.731 961.029C539.079 948.26 510.716 935.107 478.934 924.369C447.156 913.632 412.006 905.327 378.792 902.227ZM895.653 -389.947C934.41 -446.186 1007.06 -493.865 1079.22 -492.365C1128.47 -491.342 1162.67 -467.688 1205.62 -418.34C1227.08 -393.675 1250.78 -362.542 1279.65 -324.544C1308.53 -286.537 1342.61 -241.638 1384.88 -189.401C1440.3 -120.893 1487.93 -66.7949 1528.28 -21.9113C1568.62 22.9611 1601.72 58.6593 1628.05 90.324C1680.74 153.703 1706.43 201.098 1709.06 274.05C1709.55 287.788 1710.85 324.064 1702.53 365.74C1694.21 407.41 1676.24 454.57 1638.12 489.996C1588.61 535.997 1533.58 535.741 1471.07 533.458C1408.53 531.174 1338.35 526.843 1257.85 564.138C1172.38 603.738 1117.99 670.487 1079.4 725.221C1060.14 752.538 1044.74 776.981 1031.44 793.403C1024.79 801.621 1018.58 807.935 1012.59 811.628C1006.56 815.342 1000.66 816.454 994.749 814.079C986.703 810.846 982.765 802.821 980.841 790.323C978.913 777.802 978.947 760.401 979.193 737.86C979.687 692.725 981.044 626.604 969.469 536.461C953.853 414.863 944.885 352.119 895.746 299.424C863.513 264.85 828.458 250.125 799.734 237.542C771.119 225.006 748.386 214.472 741.934 188.027C735.92 163.393 748.848 144.712 768.495 122.677C788.205 100.57 814.862 74.8955 837.321 35.993C883.621 -44.2121 875.64 -117.595 867.289 -187.542C858.944 -257.439 850.195 -324.032 895.653 -389.947ZM1079.17 -490.365C1007.85 -491.847 935.778 -444.646 897.301 -388.813C852.331 -323.605 860.918 -257.778 869.275 -187.779C877.627 -117.829 885.714 -43.8376 839.053 36.993C816.46 76.1261 789.596 102.016 769.988 124.008C750.318 146.069 738.131 164.02 743.876 187.554C750.057 212.885 771.72 223.086 800.537 235.71C829.246 248.287 864.662 263.149 897.209 298.059L898.365 299.309C947.012 352.311 955.983 415.736 971.453 536.206C983.048 626.498 981.687 692.74 981.193 737.882C980.946 760.479 980.92 777.695 982.817 790.018C984.718 802.364 988.492 809.41 995.495 812.223L995.979 812.409C1000.98 814.237 1006.06 813.304 1011.54 809.926C1017.24 806.416 1023.27 800.317 1029.89 792.144C1043.14 775.784 1058.41 751.527 1077.77 724.069C1116.41 669.253 1171.06 602.149 1257.01 562.324C1338 524.801 1408.64 529.177 1471.14 531.46C1533.68 533.744 1587.91 533.914 1636.75 488.531L1637.63 487.708C1674.73 452.768 1692.35 406.468 1700.57 365.348C1708.84 323.913 1707.55 287.83 1707.06 274.122C1704.46 201.784 1679.05 154.803 1626.51 91.6024C1600.22 59.9773 1567.17 24.3346 1526.79 -20.5744C1486.43 -65.4723 1438.78 -119.598 1383.32 -188.143C1341.04 -240.407 1306.94 -285.328 1278.06 -323.334C1249.17 -361.349 1225.52 -392.423 1204.11 -417.028C1161.3 -466.218 1127.59 -489.36 1079.17 -490.365ZM967.816 -293.074C1000.05 -337.075 1058.43 -375.154 1116.63 -372.918C1156.63 -371.378 1184.23 -351.468 1218.56 -311.009C1235.72 -290.787 1254.59 -265.382 1277.56 -234.506C1300.52 -203.621 1327.6 -167.238 1361.17 -125.021C1405.24 -69.731 1443.09 -25.9803 1475.09 10.3856C1507.08 46.741 1533.25 75.7486 1553.92 101.511C1595.31 153.087 1614.81 191.814 1615.15 250.881C1615.22 262.087 1615.81 291.363 1608.66 324.945C1601.51 358.521 1586.6 396.496 1555.6 425.043L1555.6 425.044C1515.06 462.228 1470.13 462.343 1419.3 460.722C1368.43 459.101 1311.51 455.726 1246.34 485.399C1176.52 517.199 1131.42 570.147 1098.96 613.171C1082.76 634.639 1069.64 653.739 1058.21 666.376C1052.49 672.7 1047.12 677.499 1041.91 680.179C1036.66 682.882 1031.53 683.454 1026.41 681.229H1026.41C1019.42 678.173 1015.76 671.256 1013.76 660.744C1011.76 650.225 1011.36 635.789 1011.15 617.249C1010.72 580.118 1011.04 526.173 1000.98 453.021C987.282 353.36 979.258 300.739 939.987 256.821C914.388 228.208 886.669 215.628 864.191 204.907C841.812 194.233 824.233 185.265 820.065 163.66C816.186 143.541 827.76 128.375 844.751 110.713C861.818 92.9726 884.559 72.5177 904.05 41.5858C944.097 -22.2051 941.284 -79.9618 937.771 -134.772C934.287 -189.125 930.087 -240.717 966.938 -291.865L967.816 -293.074ZM1116.55 -370.92C1059.2 -373.123 1001.4 -335.531 969.43 -291.892H969.429C932.12 -241.013 936.249 -189.772 939.767 -134.9C943.282 -80.056 946.157 -21.7227 905.743 42.6512L905.742 42.6522C886.111 73.808 863.156 94.4668 846.192 112.099C829.154 129.81 818.365 144.276 822.029 163.281C825.977 183.748 842.492 192.341 865.053 203.101C887.514 213.814 915.581 226.54 941.479 255.487C981.236 299.949 989.287 353.259 1002.96 452.749C1013.04 526.042 1012.72 580.106 1013.15 617.225C1013.36 635.81 1013.77 650.059 1015.73 660.371C1017.69 670.688 1021.15 676.746 1027.21 679.395H1027.21C1031.65 681.329 1036.15 680.894 1041 678.401C1045.88 675.887 1051.06 671.304 1056.73 665.035C1068.08 652.485 1081.07 633.555 1097.36 611.966C1129.87 568.873 1175.22 515.592 1245.51 483.579C1311.17 453.686 1368.54 457.103 1419.36 458.723C1470.22 460.345 1514.36 460.151 1554.24 423.571C1584.83 395.409 1599.6 357.881 1606.71 324.528C1613.81 291.181 1613.22 262.1 1613.15 250.892C1612.81 192.441 1593.6 154.141 1552.36 102.763C1531.72 77.0471 1505.6 48.0951 1473.59 11.7068C1441.58 -24.671 1403.71 -68.4485 1359.61 -123.774L1359.61 -123.775C1326.01 -166.02 1298.92 -202.427 1275.95 -233.313C1252.98 -264.207 1234.14 -289.553 1217.04 -309.715C1183.37 -349.393 1156.56 -368.801 1118.38 -370.836L1116.55 -370.92ZM1041.03 -197.71C1066.88 -228.836 1110.33 -256.412 1153.87 -253.482C1184.64 -251.414 1205.66 -235.25 1231.36 -203.685C1244.2 -187.909 1258.26 -168.234 1275.31 -144.482C1292.36 -120.721 1312.43 -92.8555 1337.31 -60.6594L1340.37 -56.7404C1371.78 -16.5051 1398.83 15.6894 1421.73 42.6707C1445.36 70.5128 1464.59 92.8338 1479.61 112.697C1494.64 132.567 1505.5 150.031 1512.36 168.184C1519.01 185.784 1521.88 203.986 1521.21 225.603L1521.14 227.707C1520.77 236.426 1520.68 258.734 1514.71 284.22C1508.75 309.703 1496.9 338.466 1472.96 360.081C1441.47 388.519 1406.62 389.003 1367.44 388.025C1328.22 387.047 1284.53 384.593 1234.72 406.651C1180.51 430.65 1144.7 469.799 1118.36 501.117C1105.23 516.738 1094.37 530.502 1084.8 539.353C1075.28 548.165 1066.58 552.524 1057.89 548.352L1057.89 548.351C1051.96 545.481 1048.58 539.689 1046.5 531.164C1044.42 522.648 1043.59 511.175 1042.91 496.633C1041.56 467.5 1040.84 425.732 1032.33 369.575C1020.54 291.841 1013.47 249.355 984.042 214.197C965.078 191.543 944.697 181.114 928.471 172.258C912.324 163.445 899.915 156.029 898.051 139.251L897.978 138.523C896.627 123.293 906.778 111.828 920.897 98.7586C935.336 85.3951 954.171 70.1546 970.646 47.1522V47.1512C1004.54 -0.169357 1006.89 -42.2922 1008.18 -81.966C1009.48 -121.64 1009.7 -159.025 1039.81 -196.226L1041.03 -197.71ZM1153.74 -251.487C1110.38 -254.404 1066.82 -226.404 1041.37 -194.968C1011.74 -158.359 1011.48 -121.652 1010.18 -81.9006C1008.89 -42.4596 1006.57 -0.178307 973.068 47.1961L972.271 48.3162C955.644 71.5319 936.59 86.9589 922.256 100.226C908.053 113.372 898.714 124.211 899.97 138.352L900.038 139.028V139.029C901.772 154.639 913.145 161.614 929.43 170.503C945.635 179.348 966.338 189.933 985.576 212.914C1015.43 248.586 1022.54 291.701 1034.3 369.275C1042.84 425.559 1043.56 467.448 1044.91 496.54C1045.59 511.109 1046.42 522.391 1048.44 530.69C1050.47 538.978 1053.62 544.062 1058.75 546.55H1058.75C1066.2 550.122 1073.96 546.663 1083.45 537.885C1092.89 529.147 1103.61 515.549 1116.83 499.83C1143.21 468.466 1179.27 429.014 1233.91 404.822C1284.2 382.556 1328.33 385.049 1367.49 386.026C1406.68 387.004 1440.77 386.452 1471.62 358.596L1472.72 357.596C1495.51 336.471 1506.94 308.634 1512.76 283.763C1518.68 258.5 1518.77 236.4 1519.14 227.624L1519.21 225.544C1519.88 204.155 1517.03 186.216 1510.49 168.891C1503.72 150.993 1492.99 133.703 1478.02 113.903C1463.04 94.0973 1443.86 71.8337 1420.21 43.9647C1396.56 16.1051 1368.48 -17.3265 1335.73 -59.4318L1335.73 -59.4338C1310.82 -91.661 1290.74 -119.552 1273.68 -143.316C1256.62 -167.088 1242.6 -186.704 1229.81 -202.422C1204.22 -233.844 1183.67 -249.475 1153.74 -251.487ZM846.108 -559.446C850.467 -560.022 854.061 -560.162 856.789 -559.805C859.381 -559.466 861.457 -558.643 862.494 -557.029L862.592 -556.87L862.593 -556.868C863.067 -556.048 863.202 -555.166 863.022 -554.259C862.849 -553.383 862.392 -552.529 861.766 -551.695C860.522 -550.038 858.424 -548.217 855.742 -546.157C853.044 -544.086 849.662 -541.703 845.794 -538.938C841.918 -536.166 837.534 -532.994 832.799 -529.322C813.868 -514.641 789.317 -491.948 769.568 -455.03C726.668 -374.833 742.365 -294.652 756.702 -214.36C771.023 -134.159 783.976 -53.8699 734.788 25.8113C723.244 44.5084 716.128 50.4525 708.012 57.6024C699.994 64.6661 690.938 72.962 675.359 96.4442C633.039 160.23 622.943 214.973 614.344 262.14C605.747 309.291 598.629 349.096 561.981 382.415C532.881 408.874 497.738 419.829 468.885 424.051C441.832 428.009 420.245 426.056 414.214 425.372L413.218 425.255C372.066 420.144 341.088 401.153 312.698 375.68C298.511 362.949 284.959 348.59 271.109 333.532C257.251 318.465 243.098 302.703 227.671 287.117C141.609 200.173 62.4481 165.775 2.24313 143.446C-27.825 132.294 -53.3236 124.103 -72.5117 113.87C-91.4583 103.766 -104.445 91.577 -109.75 72.4061L-109.997 71.4881C-116.922 45.0207 -107.05 14.7182 -84.7891 -17.8273C-62.5111 -50.3976 -27.7044 -85.3963 15.6084 -121.348C102.242 -193.258 223.086 -269.126 346.348 -337.161C469.618 -405.201 595.349 -465.431 691.785 -506.056C739.999 -526.367 780.912 -541.787 810.541 -550.831C825.349 -555.351 837.379 -558.291 846.108 -559.446ZM856.53 -557.821C854.055 -558.145 850.66 -558.03 846.371 -557.463C837.805 -556.33 825.899 -553.428 811.125 -548.918C781.59 -539.902 740.75 -524.512 692.562 -504.212C596.194 -463.615 470.525 -403.417 347.314 -335.41C224.096 -267.399 103.378 -191.601 16.8857 -119.809C-26.3641 -83.9094 -61.0113 -49.0476 -83.1387 -16.6974C-105.283 15.6772 -114.768 45.356 -108.063 70.9822L-108.062 70.9832C-103.114 89.9461 -90.5408 101.988 -71.5703 112.105C-52.5406 122.254 -27.2733 130.366 2.93845 141.571C63.2934 163.956 142.749 198.483 229.092 285.71C244.553 301.33 258.744 317.133 272.581 332.178C286.427 347.231 299.924 361.529 314.034 374.19C342.24 399.499 372.852 418.226 413.464 423.269L414.44 423.385C420.37 424.058 441.771 425.997 468.596 422.072C497.212 417.885 531.928 407.036 560.636 380.934C596.716 348.131 603.766 309.009 612.377 261.781C620.984 214.57 631.134 159.483 673.692 95.3387C689.378 71.6948 698.555 63.2689 706.689 56.1024C714.726 49.022 721.684 43.2263 733.086 24.7606C781.826 -54.196 769.065 -133.749 754.733 -214.008C740.419 -294.174 724.526 -375.068 767.806 -455.974C787.728 -493.215 812.5 -516.112 831.573 -530.904C836.339 -534.599 840.748 -537.789 844.63 -540.565C848.521 -543.347 851.862 -545.699 854.524 -547.743C857.203 -549.8 859.102 -551.478 860.166 -552.895C860.693 -553.597 860.967 -554.175 861.061 -554.648C861.148 -555.089 861.088 -555.475 860.863 -555.864V-555.863C860.352 -556.741 859.058 -557.491 856.53 -557.821ZM1111.67 -99.467C1130.7 -118.835 1160.72 -137.786 1190.97 -134.11C1212.53 -131.487 1226.87 -119.003 1243.89 -96.3098C1252.4 -84.9678 1261.61 -71.0169 1272.75 -54.4035C1283.9 -37.7801 1296.98 -18.4613 1313.24 3.65802C1334.51 32.5858 1352.72 55.6984 1367.96 75.0682C1383.2 94.4284 1395.48 110.076 1404.86 124.04C1414.25 138.01 1420.75 150.344 1424.4 163.094C1428.06 175.856 1428.84 188.98 1426.83 204.515V204.516C1426.03 210.72 1425.22 226.064 1420.44 243.429C1415.73 260.536 1407.14 279.739 1390.82 294.363L1390.04 295.056C1367.55 314.705 1342.81 315.555 1315.29 315.225C1288.17 314.901 1258.25 313.427 1224.41 327.183L1222.8 327.849C1184.19 344.02 1157.66 369.394 1137.44 389.028C1127.36 398.815 1118.78 407.253 1111.07 412.318C1103.34 417.399 1096.19 419.269 1089.17 415.41C1084.32 412.746 1081.23 408.096 1079.07 401.567C1076.91 395.056 1075.63 386.547 1074.49 375.995C1072.21 354.842 1070.47 325.253 1063.49 286.085V286.084C1053.59 230.268 1047.51 197.953 1027.91 171.496C1015.56 154.82 1002.5 146.563 992.514 139.563C987.54 136.076 983.247 132.847 980.273 129.009C977.262 125.121 975.62 120.636 975.862 114.701C976.09 109.173 978.437 104.401 982.165 99.9139C985.879 95.4435 991.008 91.201 996.884 86.7225C1008.68 77.7317 1023.6 67.6924 1037.1 52.6258C1064.79 21.7109 1072.21 -4.75942 1078.29 -29.2609C1084.37 -53.7994 1089.13 -76.5302 1111.67 -99.467ZM1190.73 -132.123C1161.86 -135.631 1132.89 -117.843 1113.99 -98.965L1113.1 -98.0656C1090.99 -75.5687 1086.33 -53.3646 1080.23 -28.7795C1074.12 -4.15709 1066.6 22.6861 1038.59 53.9598C1024.92 69.2085 1009.79 79.4034 998.097 88.3133C992.23 92.785 987.261 96.91 983.704 101.191C980.161 105.455 978.065 109.821 977.861 114.783C977.639 120.24 979.127 124.264 981.854 127.784C984.62 131.353 988.673 134.428 993.662 137.926C1003.6 144.895 1016.94 153.327 1029.52 170.305H1029.52C1049.45 197.217 1055.59 230.061 1065.46 285.734L1066.1 289.387C1072.56 326.843 1074.28 355.382 1076.48 375.78C1077.62 386.332 1078.88 394.65 1080.97 400.938C1083.04 407.209 1085.9 411.33 1090.13 413.658C1096.19 416.988 1102.49 415.565 1109.97 410.646C1117.48 405.711 1125.91 397.443 1136.05 387.594C1155.96 368.261 1182.2 343.134 1220.2 326.777L1222.02 326.005C1256.97 311.348 1287.83 312.897 1315.31 313.225C1342.83 313.555 1366.85 312.656 1388.72 293.551L1389.48 292.874C1405.42 278.599 1413.85 259.8 1418.51 242.898C1423.24 225.714 1424.03 210.63 1424.85 204.26C1426.82 188.948 1426.05 176.103 1422.48 163.644C1418.91 151.174 1412.53 139.036 1403.2 125.155C1393.87 111.267 1381.64 95.6836 1366.39 76.3045C1351.15 56.9351 1332.92 33.7995 1311.63 4.84259C1295.34 -17.3121 1282.24 -36.6589 1271.09 -53.2892C1259.94 -69.9294 1250.76 -83.8216 1242.29 -95.1096C1225.63 -117.324 1211.89 -129.227 1191.7 -131.998L1190.73 -132.123ZM693.428 -353.701C695.477 -353.675 697.213 -353.331 698.304 -352.412C698.811 -351.988 699.178 -351.431 699.229 -350.737C699.279 -350.077 699.029 -349.468 698.693 -348.944C698.037 -347.919 696.776 -346.799 695.193 -345.558C693.583 -344.295 691.503 -342.805 689.112 -341.058C686.711 -339.303 683.97 -337.27 680.997 -334.894C669.113 -325.397 653.501 -310.406 641.389 -286.009V-286.008C615.223 -233.321 628.825 -179.896 641.668 -125.732C654.483 -71.6849 666.52 -16.9404 636.324 37.6492V37.6502C629.239 50.4564 624.974 54.7028 620.021 59.7576C615.153 64.726 609.577 70.5204 599.746 86.5076V86.5086C573.029 129.928 567.978 167.703 563.765 200.603C559.555 233.471 556.177 261.71 532.479 285.449C495.702 322.34 442.258 319.018 436.149 319.509L435.895 319.535C409.764 323.078 389.136 313.063 369.578 297.098C359.808 289.123 350.28 279.643 340.453 269.602C330.616 259.551 320.48 248.939 309.451 238.639H309.45C248.812 181.973 192.006 158.309 147.878 142.217C125.843 134.181 106.844 127.994 92.1767 120.52C77.476 113.03 66.9326 104.156 61.9433 90.6336C55.3041 72.6438 60.116 51.8798 73.333 29.5164C86.5586 7.1385 108.298 -17.0148 135.857 -41.9103C190.985 -91.7088 269.592 -144.646 350.586 -192.479C431.589 -240.316 515.024 -283.075 579.837 -312.509C612.241 -327.225 640.007 -338.618 660.496 -345.651C670.736 -349.165 679.188 -351.602 685.506 -352.815C688.662 -353.42 691.323 -353.728 693.428 -353.701ZM693.402 -351.701C691.49 -351.726 688.977 -351.445 685.883 -350.851C679.701 -349.664 671.351 -347.262 661.146 -343.759C640.742 -336.756 613.04 -325.391 580.664 -310.688C515.917 -281.283 432.545 -238.559 351.604 -190.757C270.653 -142.95 192.179 -90.0919 137.198 -40.426C109.704 -15.5894 88.1323 8.40644 75.0547 30.534C61.9685 52.676 57.4846 72.7742 63.8203 89.9412C68.561 102.79 78.595 111.355 93.0849 118.738C107.608 126.138 126.413 132.26 148.563 140.338C192.807 156.472 249.897 180.249 310.815 237.178C321.887 247.516 332.067 258.176 341.882 268.204C351.708 278.243 361.168 287.651 370.843 295.549C390.174 311.328 410.259 320.993 435.626 317.554C440.875 316.842 494.329 320.886 531.063 284.037C554.209 260.852 557.557 233.323 561.78 200.349C565.999 167.408 571.088 129.266 598.043 85.4598C607.963 69.3279 613.636 63.4164 618.593 58.3572C623.465 53.3846 627.603 49.2816 634.574 36.6815C664.349 -17.147 652.555 -71.1458 639.722 -125.271C626.917 -179.277 613.056 -233.453 639.598 -286.898C651.878 -311.633 667.715 -326.84 679.749 -336.456C682.755 -338.859 685.523 -340.911 687.933 -342.672C690.352 -344.44 692.385 -345.897 693.96 -347.132C695.563 -348.389 696.56 -349.321 697.009 -350.022C697.225 -350.359 697.24 -350.532 697.235 -350.588C697.234 -350.609 697.23 -350.704 697.021 -350.879L697.018 -350.881C696.489 -351.327 695.367 -351.676 693.402 -351.701ZM1204.23 -13.2014C1211.58 -15.7629 1219.46 -17.0452 1227.32 -15.175L1228.08 -14.9846L1228.66 -14.8264C1240.73 -11.428 1248.3 -2.7299 1256.52 10.8299C1260.69 17.7156 1265.07 25.9255 1270.29 35.3953C1275.18 44.2845 1280.83 54.3157 1287.79 65.493L1289.2 67.744V67.7449C1308.93 99.146 1322.63 119.055 1329.95 135.243C1333.62 143.369 1335.71 150.618 1336.15 157.973C1336.59 165.332 1335.38 172.734 1332.53 181.163V181.164C1331.88 183.062 1331.2 186.007 1330.19 189.748C1329.2 193.448 1327.92 197.833 1326.12 202.463C1322.64 211.428 1317.18 221.36 1308.02 229.072L1307.12 229.812C1293.65 240.629 1279.02 241.828 1263.14 242.138C1247.23 242.448 1230.03 241.871 1210.89 248.812H1210.89C1187.78 257.18 1170.55 268.79 1156.4 276.762C1149.35 280.73 1143.02 283.825 1137.15 285.067C1131.22 286.321 1125.72 285.694 1120.42 282.218V282.217C1112.97 277.327 1109.23 268.256 1105.99 255.167C1104.37 248.594 1102.86 240.923 1101.1 232.151C1099.33 223.371 1097.31 213.464 1094.66 202.38C1086.55 168.489 1081.49 146.444 1071.72 128.477V128.476C1065.86 117.766 1060.09 111.729 1056.29 106.471C1054.4 103.866 1052.99 101.418 1052.44 98.7186C1051.88 95.9895 1052.24 93.1146 1053.68 89.6863C1055.02 86.4954 1057.57 83.8178 1060.86 81.3826C1064.15 78.9466 1068.26 76.6984 1072.82 74.3973C1081.98 69.7733 1093.02 64.9023 1103.59 57.744C1125.1 43.1528 1137.4 32.3971 1148.16 23.0682C1158.94 13.7247 1168.2 5.78705 1183.61 -3.08319C1189.57 -6.5254 1196.66 -10.5592 1204.23 -13.2014ZM1227.57 -13.051C1219.98 -15.0548 1212.26 -13.8825 1204.89 -11.3127C1197.52 -8.7408 1190.59 -4.79992 1184.61 -1.34979H1184.6C1169.37 7.41997 1160.23 15.2514 1149.47 24.5789C1138.69 33.921 1126.33 44.7398 1104.71 59.3992H1104.71C1094.01 66.653 1082.77 71.6167 1073.72 76.1824C1069.17 78.4762 1065.19 80.6617 1062.05 82.9901C1058.9 85.3192 1056.67 87.7365 1055.52 90.4627C1054.2 93.6131 1053.94 96.0739 1054.4 98.3201C1054.86 100.596 1056.08 102.764 1057.91 105.3C1061.43 110.167 1067.17 116.274 1072.92 126.515L1073.48 127.519L1073.48 127.522C1083.4 145.777 1088.52 168.135 1096.6 201.914C1099.26 213.036 1101.29 222.973 1103.06 231.758C1104.82 240.551 1106.32 248.168 1107.93 254.687C1111.07 267.373 1114.56 275.596 1120.9 280.119L1121.52 280.546L1121.97 280.832C1126.61 283.717 1131.4 284.237 1136.73 283.11C1142.29 281.936 1148.39 278.979 1155.42 275.018C1169.41 267.132 1186.9 255.374 1210.21 246.931C1229.72 239.853 1247.3 240.447 1263.1 240.138C1278.94 239.829 1292.96 238.617 1305.87 228.253C1315.2 220.743 1320.73 210.81 1324.26 201.738C1326.02 197.205 1327.28 192.899 1328.26 189.23C1329.23 185.603 1329.96 182.5 1330.63 180.52C1333.43 172.273 1334.58 165.134 1334.16 158.094C1333.73 151.051 1331.73 144.045 1328.12 136.066C1320.89 120.045 1307.33 100.347 1287.51 68.8084V68.8074C1279.87 56.6751 1273.76 45.8561 1268.53 36.3602C1263.3 26.8517 1258.95 18.7059 1254.81 11.867C1246.52 -1.8071 1239.19 -9.9777 1227.57 -13.051ZM533.964 -147.896C534.288 -147.803 534.659 -147.661 534.948 -147.405C535.302 -147.093 535.501 -146.634 535.413 -146.117C535.343 -145.708 535.109 -145.379 534.921 -145.155C534.716 -144.911 534.453 -144.663 534.167 -144.415C533.599 -143.922 532.802 -143.313 531.897 -142.602C530.978 -141.879 529.907 -141.019 528.733 -139.986C524.052 -135.863 517.7 -128.935 513.247 -117.064L513.246 -117.062C508.506 -104.5 508.985 -91.563 512.094 -78.2385C515.207 -64.893 520.932 -51.2511 526.618 -37.2726C537.945 -9.42855 549.136 19.7449 537.907 49.3992V49.4002C535.309 56.2495 533.91 58.7889 532.122 61.7664C530.481 64.4996 528.516 67.598 524.908 74.9852L524.164 76.5213C513.075 99.5888 513.075 120.33 513.252 138.938C513.428 157.475 513.809 174.131 503.031 188.414C494.752 199.396 483.888 204.848 474.982 207.998C470.538 209.57 466.546 210.58 463.648 211.4C462.182 211.815 461.028 212.173 460.205 212.524C459.795 212.7 459.506 212.857 459.316 212.995C459.121 213.137 459.099 213.208 459.108 213.185L458.971 213.531L458.642 213.703C447.241 219.638 437.002 218.783 426.301 213.909C415.694 209.078 404.532 200.25 391.227 190.202C356.214 163.767 321.802 150.88 293.704 141.049C279.676 136.14 267.157 131.972 256.976 127.257C246.794 122.541 238.798 117.213 233.906 109.895V109.896C227.615 100.493 227.262 89.4109 231.353 77.3631C235.435 65.3397 243.966 52.2611 255.598 38.6863C278.868 11.5286 314.761 -17.858 353.137 -45.0812C391.525 -72.3133 432.452 -97.4184 465.835 -116.008C482.526 -125.303 497.341 -132.974 509.015 -138.469C514.851 -141.216 519.911 -143.424 524.034 -145.02C528.135 -146.607 531.377 -147.617 533.547 -147.925L533.759 -147.955L533.964 -147.896ZM532.604 -145.717C530.699 -145.292 528.064 -144.436 524.757 -143.155C520.693 -141.582 515.678 -139.395 509.866 -136.659C498.245 -131.189 483.472 -123.541 466.808 -114.261C433.479 -95.7015 392.615 -70.6346 354.294 -43.4504C315.961 -16.2571 280.226 13.0179 257.116 39.9881C245.558 53.4771 237.211 66.3292 233.246 78.0057C229.352 89.4756 229.71 99.721 235.298 108.373L235.568 108.784C240.154 115.644 247.749 120.779 257.816 125.442C267.885 130.105 280.276 134.231 294.365 139.161C322.504 149.007 357.16 161.976 392.432 188.606C405.839 198.731 416.778 207.375 427.13 212.09C437.305 216.724 446.812 217.512 457.456 212.062C457.646 211.783 457.892 211.558 458.141 211.377C458.501 211.115 458.941 210.89 459.419 210.685C460.374 210.277 461.642 209.889 463.104 209.475C466.062 208.638 469.951 207.656 474.315 206.112C483.026 203.031 493.484 197.758 501.436 187.211C511.732 173.566 511.429 157.654 511.252 138.958C511.075 120.333 511.054 99.1758 522.361 75.6551L523.112 74.1033C526.758 66.6391 528.757 63.4847 530.407 60.7361C532.131 57.8664 533.479 55.4351 536.037 48.6902C546.947 19.877 536.139 -8.55973 524.766 -36.5187C519.102 -50.4419 513.303 -64.2505 510.146 -77.7844C506.984 -91.3384 506.447 -104.709 511.374 -117.767C515.967 -130.013 522.545 -137.201 527.412 -141.487C528.625 -142.555 529.73 -143.44 530.661 -144.173C531.465 -144.805 532.11 -145.305 532.604 -145.717ZM1126.91 76.5721C1133.61 74.5442 1142.79 73.8533 1153.17 74.2811C1163.91 74.7235 1176.01 76.3667 1188.14 79.0272C1212.35 84.3384 1236.83 93.7438 1250.72 105.897L1251.62 106.705C1260.78 115.07 1264.15 123.961 1263.31 132.647C1262.46 141.553 1257.2 150.035 1249.73 157.337C1242.25 164.649 1232.46 170.862 1222.35 175.228C1212.24 179.592 1201.73 182.143 1192.81 182.066C1179.82 181.957 1166.27 176.253 1154.02 167.628C1141.76 158.995 1130.7 147.38 1122.69 135.311C1114.68 123.263 1109.63 110.654 1109.53 100.034C1109.48 94.7073 1110.68 89.8403 1113.42 85.8133C1116.16 81.7797 1120.39 78.6712 1126.27 76.7733L1126.91 76.5721ZM1153.09 76.2791C1142.47 75.8413 1133.31 76.5997 1126.89 78.6756L1126.88 78.6766C1121.36 80.4601 1117.52 83.328 1115.07 86.9373C1112.61 90.5535 1111.49 94.996 1111.53 100.014C1111.63 110.085 1116.45 122.312 1124.35 134.205C1132.24 146.077 1143.12 157.509 1155.17 165.992C1167.23 174.482 1180.38 179.962 1192.82 180.066C1201.4 180.14 1211.62 177.681 1221.55 173.391C1231.48 169.104 1241.05 163.019 1248.33 155.906C1255.62 148.782 1260.53 140.713 1261.32 132.456C1262.11 124.26 1258.86 115.671 1249.41 107.403H1249.4C1235.9 95.5845 1211.81 86.2682 1187.71 80.9803C1175.68 78.3411 1163.7 76.7161 1153.09 76.2791ZM395.078 49.4158C405.438 49.1841 417.021 51.1971 428.343 55.3983C450.974 63.7958 472.723 81.0035 481.545 106.774C486.531 121.341 486.544 130.689 482.721 136.233C478.863 141.828 471.44 143.09 462.887 142.425C454.265 141.754 444.051 139.09 434.085 136.311C424.068 133.519 414.314 130.615 406.46 129.38H406.458C385.054 125.987 366.262 115.165 357.495 101.514C353.098 94.6671 351.206 87.0722 352.853 79.3709C354.497 71.6774 359.641 64.0255 369.023 56.9871V56.9861C375.519 52.1202 384.733 49.6473 395.078 49.4158ZM427.646 57.2733C416.535 53.1503 405.203 51.1903 395.122 51.4158C385.342 51.6347 376.82 53.9075 370.798 58.1688L370.223 58.5867C361.11 65.4228 356.325 72.6932 354.809 79.7889C353.293 86.8769 355.007 93.9387 359.178 100.433C367.548 113.467 385.747 124.072 406.771 127.404H406.771C414.772 128.663 424.684 131.615 434.622 134.386C444.612 137.17 454.644 139.777 463.042 140.43C471.509 141.089 477.882 139.727 481.074 135.097C484.302 130.417 484.621 121.938 479.652 107.423C471.076 82.3691 449.882 65.524 427.646 57.2733Z" fill="#2E2D2B"/>
</svg>
