<svg width="24" height="24" viewBox="0 0 24 24" fill="none" xmlns="http://www.w3.org/2000/svg">
<path d="M12 2C12.5523 2 13 2.44772 13 3C13 3.55228 12.5523 4 12 4C10.4178 4 8.87127 4.46958 7.55567 5.34863C6.24015 6.22764 5.21489 7.47676 4.60939 8.93848C4.00392 10.4002 3.84471 12.0088 4.15333 13.5605C4.46201 15.1124 5.22396 16.5384 6.34278 17.6572C7.4616 18.776 8.88762 19.538 10.4395 19.8467C11.9912 20.1553 13.5998 19.9961 15.0615 19.3906C16.5233 18.7851 17.7724 17.7599 18.6514 16.4443C19.5304 15.1287 20 13.5823 20 12C20 11.4477 20.4477 11 21 11C21.5523 11 22 11.4477 22 12C22 13.9778 21.4133 15.9112 20.3145 17.5557C19.2157 19.2001 17.6543 20.4824 15.8272 21.2393C13.9999 21.9961 11.9886 22.1935 10.0488 21.8076C8.10915 21.4217 6.32717 20.4697 4.92872 19.0713C3.53027 17.6728 2.57828 15.8909 2.19239 13.9512C1.80654 12.0114 2.00388 10.0001 2.76075 8.17285C3.51762 6.34567 4.79993 4.78434 6.44435 3.68555C8.08884 2.58673 10.0222 2 12 2Z" fill="currentColor"/>
<path fill-rule="evenodd" clip-rule="evenodd" d="M9.72361 10.9795C9.34161 10.5805 8.70961 10.5645 8.30961 10.9465C7.91061 11.3275 7.89461 11.9605 8.27661 12.3605L10.4996 14.6905C10.6876 14.8875 10.9476 14.9995 11.2196 15.0005H11.2236C11.4946 15.0005 11.7536 14.8905 11.9416 14.6955L18.7186 7.69552C19.1026 7.29852 19.0926 6.66552 18.6956 6.28152C18.2976 5.89652 17.6646 5.90852 17.2816 6.30452L11.2286 12.5575L9.72361 10.9795Z" fill="currentColor"/>
</svg>
