<?xml version="1.0" encoding="utf-8"?><svg viewBox="0 0 130 36" xmlns="http://www.w3.org/2000/svg" xmlns:xlink="http://www.w3.org/1999/xlink"><style>:root>svg{display:none}:root>svg:target{display:block}</style><svg fill="none" viewBox="0 0 44 20" id="arrow-left" xmlns="http://www.w3.org/2000/svg"><path d="M11 0c0 3.722-1.85 7.01-4.68 9H44v2H6.445a10.984 10.984 0 014.68 9h-2a9 9 0 00-9-9H0V9a9 9 0 009-9h2z" fill="currentColor"/></svg><svg fill="none" viewBox="0 0 44 20" id="arrow-right" xmlns="http://www.w3.org/2000/svg"><path d="M33 0c0 3.722 1.85 7.01 4.68 9H0v2h37.555a10.984 10.984 0 00-4.68 9h2a9 9 0 019-9H44V9a9 9 0 01-9-9h-2z" fill="currentColor"/></svg><svg fill="none" viewBox="0 0 20 20" id="arrow-right-list" xmlns="http://www.w3.org/2000/svg"><path d="M13.68 9A10.983 10.983 0 019 0h2a9 9 0 009 9v2h-.125a9 9 0 00-9 9h-2c0-3.722 1.85-7.01 4.68-9H0V9h13.68z" fill="currentColor"/></svg><svg fill="none" viewBox="0 0 24 24" id="check" xmlns="http://www.w3.org/2000/svg"><path d="M12 2a1 1 0 110 2 8 8 0 108 8 1 1 0 112 0A10 10 0 1112 2z" fill="currentColor"/><path fill-rule="evenodd" clip-rule="evenodd" d="M9.724 10.98a1 1 0 10-1.447 1.38l2.223 2.33a1 1 0 00.72.31h.004c.27 0 .53-.11.718-.305l6.777-7a1 1 0 10-1.437-1.39l-6.053 6.252-1.505-1.578z" fill="currentColor"/></svg><svg fill="none" viewBox="0 0 130 36" id="logo" xmlns="http://www.w3.org/2000/svg"><path d="M54.253 9.771c-4.465 0-8.095 3.627-8.095 8.088 0 4.462 3.63 8.088 8.095 8.088 4.466 0 8.096-3.626 8.096-8.088 0-4.46-3.63-8.088-8.096-8.088zm0 14.548c-3.565 0-6.465-2.898-6.465-6.46 0-3.561 2.9-6.46 6.465-6.46s6.466 2.899 6.466 6.46c0 3.562-2.9 6.46-6.466 6.46zM88.317 9.771c-4.465 0-8.095 3.627-8.095 8.088 0 4.462 3.63 8.088 8.095 8.088 4.466 0 8.096-3.626 8.096-8.088 0-4.46-3.63-8.088-8.096-8.088zm0 14.548c-3.565 0-6.465-2.898-6.465-6.46 0-3.561 2.9-6.46 6.465-6.46s6.466 2.899 6.466 6.46c0 3.562-2.9 6.46-6.466 6.46zM76.53 10.72a8.057 8.057 0 00-8.963 1.697c-3.157 3.155-3.157 8.284 0 11.438a8.087 8.087 0 008.768 1.78.812.812 0 00.448-1.059.816.816 0 00-1.063-.448 6.462 6.462 0 01-7.004-1.42 6.46 6.46 0 010-9.134 6.433 6.433 0 017.159-1.356.813.813 0 10.652-1.49l.004-.008zM112.277 25.13V10.585a.816.816 0 00-.814-.815.816.816 0 00-.815.814V22.48l-8.369-12.35a.813.813 0 00-1.487.456v14.548c0 .448.367.814.815.814a.817.817 0 00.815-.814V13.24l8.368 12.346a.782.782 0 00.163.171c.033.024.065.049.102.07.016.011.037.02.053.028.041.02.082.032.122.044.017.005.033.013.045.017.057.012.118.02.179.02a.69.69 0 00.208-.032c.016-.005.033-.008.049-.017a.795.795 0 00.196-.093c.004 0 .008-.008.012-.008a.615.615 0 00.11-.094c.02-.02.032-.04.053-.061l.049-.061a.661.661 0 00.04-.073c.013-.025.025-.045.037-.07.012-.024.016-.052.025-.081.008-.024.016-.045.02-.07.008-.052.016-.101.016-.154l.008.008zM117.924 9.771a.817.817 0 00-.815.814c0 .448.367.815.815.815h4.816v13.733c0 .448.367.814.815.814a.817.817 0 00.815-.814V11.4h4.815a.817.817 0 00.815-.815.817.817 0 00-.815-.814h-11.261zM39.916 20.106c2-.777 3.427-2.715 3.427-4.982a5.357 5.357 0 00-5.354-5.349h-5.316a.817.817 0 00-.815.814v14.548c0 .448.366.814.814.814a.817.817 0 00.815-.814v-4.66h4.502c.07 0 .135-.009.204-.013l3.663 5.406a.82.82 0 001.132.22.817.817 0 00.22-1.132l-3.283-4.848-.009-.004zM33.483 11.4h4.502a3.726 3.726 0 013.724 3.72c0 2.052-1.67 3.721-3.724 3.721h-4.502V11.4zM23.187 12.87L1.357.123C.755-.229 0 .213 0 .916v25.493c0 .703.754 1.145 1.358.792l21.826-12.746a.921.921 0 000-1.586h.003zM2.874 30.308l9.532 5.568c.603.353 1.357-.088 1.357-.792V23.951c0-.704-.754-1.145-1.357-.792l-9.532 5.568a.921.921 0 000 1.586v-.005z" fill="currentColor"/></svg><svg fill="none" viewBox="0 0 24 24" id="mail" xmlns="http://www.w3.org/2000/svg"><path fill-rule="evenodd" clip-rule="evenodd" d="M19 18H5c-.551 0-1-.448-1-1V7.25l7.4 5.55a.995.995 0 001.2 0L20 7.25V17c0 .552-.449 1-1 1zm-.667-12L12 10.75 5.667 6h12.666zM19 4H5C3.346 4 2 5.346 2 7v10c0 1.654 1.346 3 3 3h14c1.654 0 3-1.346 3-3V7c0-1.654-1.346-3-3-3z" fill="currentColor"/></svg><svg fill="none" viewBox="0 0 24 24" id="phone" xmlns="http://www.w3.org/2000/svg"><path fill-rule="evenodd" clip-rule="evenodd" d="M6.6 4A2.602 2.602 0 004 6.6C4 13.988 10.011 20 17.4 20a2.603 2.603 0 002.579-2.928l-4.62-1.06-.285.545c-.456.87-.786 1.502-1.628 1.163-3.306-1.16-6.005-3.86-7.18-7.206-.357-.785.323-1.141 1.185-1.591l.537-.281-1.06-4.621A2.604 2.604 0 006.6 4zm10.8 18C8.908 22 2 15.092 2 6.6a4.605 4.605 0 016.091-4.352c.325.113.57.386.647.722l1.369 5.964a.997.997 0 01-.253.916c-.136.142-.139.145-1.379.794a9.949 9.949 0 004.879 4.883c.65-1.241.654-1.245.796-1.381a1.01 1.01 0 01.916-.253l5.965 1.369a.998.998 0 01.72.646A4.553 4.553 0 0122 17.4c0 2.537-2.064 4.6-4.6 4.6z" fill="currentColor"/></svg><svg fill="none" viewBox="0 0 24 24" id="pin" xmlns="http://www.w3.org/2000/svg"><path fill-rule="evenodd" clip-rule="evenodd" d="M12 11c-.827 0-1.5-.674-1.5-1.5 0-.828.673-1.5 1.5-1.5s1.5.672 1.5 1.5c0 .826-.673 1.5-1.5 1.5zm0-5c-1.93 0-3.5 1.57-3.5 3.5S10.07 13 12 13s3.5-1.57 3.5-3.5S13.93 6 12 6zm0 13.646c-1.675-1.584-6-6.031-6-9.724C6 6.657 8.691 4 12 4s6 2.657 6 5.922c0 3.693-4.325 8.14-6 9.724zM12 2C7.589 2 4 5.553 4 9.922c0 5.475 7.049 11.579 7.349 11.836a.998.998 0 001.302 0c.3-.257 7.349-6.361 7.349-11.836C20 5.553 16.411 2 12 2z" fill="currentColor"/></svg><svg fill="none" viewBox="0 0 24 24" id="time" xmlns="http://www.w3.org/2000/svg"><path fill-rule="evenodd" clip-rule="evenodd" d="M16 11h-3V8a1 1 0 10-2 0v4a1 1 0 001 1h4a1 1 0 100-2zm-4 9c-4.411 0-8-3.589-8-8s3.589-8 8-8 8 3.589 8 8-3.589 8-8 8zm0-18C6.486 2 2 6.486 2 12s4.486 10 10 10 10-4.486 10-10S17.514 2 12 2z" fill="currentColor"/></svg></svg>